<svg data-name="Layer 1" viewBox="0 0 50.62 50.35">
  <defs/>
  <path fill-rule="evenodd" d="M47.31 27.17h-4a2 2 0 010-4h4a2 2 0 010 4zm-7.86-13.31A2 2 0 1136.62 11l2.83-2.82A2 2 0 0142.28 11zM25.31 37.17a12 12 0 1112-12 12 12 0 01-12 12zm0-20a8 8 0 108 8 8 8 0 00-8-7.99zm0-8a2 2 0 01-2-2v-4a2 2 0 014 0v4a2 2 0 01-2 2.01zm-14.14 4.69L8.34 11a2 2 0 012.83-2.82L14 11a2 2 0 11-2.83 2.83zM9.31 25.17a2 2 0 01-2 2h-4a2 2 0 110-4h4a2 2 0 012 2zm1.86 11.32A2 2 0 0114 39.31l-2.83 2.83a2 2 0 11-2.83-2.83zm14.14 4.68a2 2 0 012 2v4a2 2 0 01-4 0v-4a2 2 0 012-2zm14.14-4.68l2.83 2.82a2 2 0 01-2.83 2.83l-2.83-2.83a2 2 0 112.83-2.82z"/>
</svg>
