<svg data-name="Layer 1" viewBox="0 0 48.16 41.5">
  <defs/>
  <path fill-rule="evenodd" d="M43.49 21.15A12 12 0 0133.67 40h-16a16 16 0 115.69-30.92A12 12 0 0134.67 1a12.36 12.36 0 012.21.21A8 8 0 0036.67 3a8 8 0 008 8 8.12 8.12 0 001.79-.21 12.36 12.36 0 01.21 2.21 11.91 11.91 0 01-3.18 8.15zM5.68 24a12 12 0 0012 12h16a8 8 0 10-4.33-14.7A12 12 0 005.68 24zM25.23 9.94zm7.65-4.7A8 8 0 0027 11a16.05 16.05 0 014.68 5.22 12.36 12.36 0 012-.21 11.89 11.89 0 017 2.28 8 8 0 001.78-3.49 12 12 0 01-9.58-9.56z"/>
</svg>
