<svg data-name="Layer 1" viewBox="0 0 56.75 50.56">
  <defs/>
  <path fill-rule="evenodd" d="M53.29 27h-4a2 2 0 110-4h4a2 2 0 110 4zm-7.86-13.3a2 2 0 11-2.83-2.83l2.83-2.82a2 2 0 012.83 2.82zm-2.94 15.61A12 12 0 0133.29 49h-16a16 16 0 114.53-31.34 12 12 0 0120.67 11.65zM5.3 33a12 12 0 0012 12h16A8 8 0 1029 30.3 12 12 0 005.3 33zm26-16a8 8 0 00-5.66 2.34 16.22 16.22 0 015.63 5.86 12.36 12.36 0 012-.21 11.91 11.91 0 015.85 1.53 7.63 7.63 0 00.17-1.52 8 8 0 00-8-8zm0-8a2 2 0 01-2-2V3a2 2 0 014 0v4a2 2 0 01-2.01 2zm-14.15 4.7l-2.83-2.83a2 2 0 012.83-2.82L20 10.87a2 2 0 01-2.83 2.83z"/>
</svg>
