<svg data-name="Layer 1" viewBox="0 0 50.74 49.01">
  <defs/>
  <path fill-rule="evenodd" d="M47.23 39.72a2 2 0 112-2 2 2 0 01-2 2zm-9-6.7v-4.38A8 8 0 1029.9 15a12 12 0 10-19.66 11.64v4.92a16 16 0 1122-21.64 12.47 12.47 0 012-.2 12 12 0 014 23.3zm-33 7.7a2 2 0 11-2 2 2 2 0 012.01-2zm10-17c0-1.11-.11-2 1-2s1 .89 1 2v24h-2a4 4 0 00-4-4v-2a6 6 0 014 1.55zm9 14c-1.11 0-1-.9-1-2v-8c0-1.11-.11-2 1-2s1 .89 1 2v8c.01 1.1.11 2-.99 2zm0 4a2 2 0 11-2 2 2 2 0 012.01-2zm8-20c1.11 0 1 .89 1 2v18a10 10 0 018-4v2a8 8 0 00-8 8h-2a7 7 0 01.05-.81 7.36 7.36 0 01-.05-1.19v-22c0-1.11-.1-2 1-2z"/>
</svg>
