<?xml version="1.0" standalone="no"?>
<!DOCTYPE svg PUBLIC "-//W3C//DTD SVG 20010904//EN"
 "http://www.w3.org/TR/2001/REC-SVG-20010904/DTD/svg10.dtd">
<svg version="1.0" xmlns="http://www.w3.org/2000/svg"
 width="261.000000pt" height="261.000000pt" viewBox="0 0 261.000000 261.000000"
 preserveAspectRatio="xMidYMid meet">
<metadata>
Created by potrace 1.11, written by Peter Selinger 2001-2013
</metadata>
<g transform="translate(0.000000,261.000000) scale(0.100000,-0.100000)"
fill="#000000" stroke="none">
<path d="M1277 2574 c-1 -1 -40 -4 -87 -8 -78 -6 -157 -19 -165 -28 -2 -2 124
-3 280 -3 245 0 314 3 262 11 -7 1 -30 5 -52 9 -59 10 -232 24 -238 19z"/>
<path d="M574 2340 l-69 -50 799 0 799 0 -44 33 c-98 73 -27 67 -757 67 l-659
0 -69 -50z"/>
<path d="M336 2120 c-37 -41 -86 -107 -86 -116 0 -10 2097 -10 2106 -1 5 4
-45 77 -93 137 -3 3 -432 5 -954 5 l-950 0 -23 -25z"/>
<path d="M130 1782 c-39 -93 -47 -132 -29 -133 106 -6 2415 0 2417 7 4 13 -47
156 -64 178 -13 19 -47 19 -1153 20 l-1140 1 -31 -73z"/>
<path d="M49 1483 c0 -10 -2 -27 -5 -38 -4 -19 -7 -161 -5 -212 l1 -23 1266 0
1265 0 -2 113 c-1 61 -4 127 -6 145 l-5 32 -1254 0 c-1187 0 -1254 -1 -1255
-17z"/>
<path d="M65 1059 c-4 -6 25 -120 50 -194 9 -27 33 -81 53 -120 l37 -70 1090
-1 c600 0 1096 2 1103 4 15 5 55 81 90 172 30 80 63 202 56 210 -8 7 -2475 7
-2479 -1z"/>
<path d="M351 468 c186 -213 486 -380 749 -414 19 -3 46 -7 60 -9 32 -7 258
-7 290 -1 14 3 41 7 60 10 131 21 204 44 345 110 84 40 196 110 255 160 55 47
190 187 190 197 0 5 -405 9 -1001 9 l-1001 0 53 -62z"/>
</g>
</svg>
